# xmcd CD database file
#
# Track frame offsets:
#	150
#	17367
#	32597
#	49657
#	69832
#	71936
#	88838
#	108312
#	119961
#	140027
#
# Disc length: 2087 seconds
#
# Revision: 0
# Processed by: cddbd v1.5PL3 Copyright (c) Steve Scherf et al.
# Submitted via: CDex 1.51
#
DISCID=8e08250a
DTITLE=LeAnn Rimes - I Need You
DYEAR=2001
DGENRE=Country
TTITLE0=I Need You
TTITLE1=But I Do Love You
TTITLE2=You Are
TTITLE3=Soon
TTITLE4=Can´t Fight The Moonlight
TTITLE5=Love Must Be Telling Me Something
TTITLE6=Written In The Stars
TTITLE7=One Of These Days
TTITLE8=I believe In You
TTITLE9=Together, Forever, Always
EXTD=YEAR: 2001
EXTT0=
EXTT1=
EXTT2=
EXTT3=
EXTT4=
EXTT5=
EXTT6=
EXTT7=
EXTT8=
EXTT9=
PLAYORDER=
